<svg xmlns="http://www.w3.org/2000/svg" width="390" height="50" viewBox="0 0 390 50">
  <g fill="none" fill-rule="evenodd" transform="translate(0 2)">
    <path fill="#4A4A4A" fill-rule="nonzero" d="M33.7488973,4.70966577 C36.4098906,4.70966577 38.6019864,5.64746076 40.4658539,7.50546709 C42.3297214,9.36933463 43.2616552,11.6317651 43.2616552,14.2282849 L43.2616552,47.2562523 L9.55378648,47.2562523 C6.89279319,47.2562523 4.68897496,46.3184573 2.83096863,44.4428673 C0.955378648,42.5672773 0.0175836561,40.3400142 0.0175836561,37.7024658 L0.0175836561,22.0002609 L35.3607324,22.0002609 L35.3607324,14.2048401 C35.3607324,13.7359426 35.2317856,13.4135755 34.8918349,13.0794861 C34.5694679,12.7629803 34.2353784,12.6281722 33.7782034,12.6281722 L-1.13686838e-13,12.6281722 L-1.13686838e-13,4.70966577 L33.7488973,4.70966577 Z M35.3431488,39.3318846 L35.3431488,29.9422123 L7.91264524,29.9422123 L7.91264524,37.7376331 C7.91264524,38.2065306 8.05331449,38.5347589 8.38154274,38.8688483 C8.72149342,39.1970766 9.04972167,39.3377458 9.51861917,39.3377458 L35.3431488,39.3377458 L35.3431488,39.3318846 Z M111.685522,4.70966577 L120.143261,4.70966577 L104.165579,47.2621135 L97.7182382,47.2621135 L83.4051421,15.6291162 L69.8833106,47.2562523 L69.7485025,47.1390279 L69.8188371,47.1976401 L63.4301088,47.1976401 L46.7256355,4.70966577 L55.1071782,4.70966577 L66.624473,32.9431562 L78.87442,4.70966577 L87.9182805,4.70966577 L100.906741,32.9431562 L111.691384,4.70966577 L111.685522,4.70966577 Z M156.418343,4.70966577 C159.079337,4.70966577 161.283155,5.64746076 163.141161,7.50546709 C165.005029,9.36933463 165.936963,11.6317651 165.936963,14.2282849 L165.936963,29.936351 L130.593814,29.936351 L130.593814,37.7317719 C130.593814,38.2006694 130.76965,38.5347589 131.062711,38.8688483 C131.414384,39.1970766 131.766058,39.3377458 132.234955,39.3377458 L165.995575,39.3377458 L165.995575,47.2503911 L132.234955,47.2503911 C129.597407,47.2503911 127.370144,46.3243185 125.553166,44.460451 C123.677576,42.5965834 122.798393,40.334153 122.798393,37.7317719 L122.798393,14.2282849 C122.798393,11.5672916 123.736188,9.36347341 125.611778,7.50546709 C127.487368,5.64746076 129.714631,4.70966577 132.352179,4.70966577 L156.494539,4.70966577 L156.418343,4.70966577 Z M130.587953,22.0237058 L158.018456,22.0237058 L158.018456,14.2282849 C158.018456,13.7593874 157.877787,13.4311592 157.549559,13.0970697 C157.215469,12.8040088 156.88138,12.6867844 156.418343,12.6867844 L132.188065,12.6867844 C131.719168,12.6867844 131.39094,12.862621 131.05685,13.1556819 C130.722761,13.507355 130.587953,13.8590282 130.587953,14.2693135 L130.587953,22.0647343 L130.587953,22.0237058 Z M216.454807,14.2986196 L216.454807,15.892871 L208.530439,15.892871 L208.530439,14.2986196 C208.530439,13.8297221 208.401492,13.4956326 208.061541,13.1674044 C207.733313,12.8333149 207.399224,12.6985069 206.936187,12.6985069 L182.705909,12.6985069 C182.237012,12.6985069 181.908784,12.8333149 181.574694,13.1674044 C181.223021,13.4956326 181.105797,13.8297221 181.105797,14.2986196 L181.105797,20.4880665 C181.105797,20.956964 181.223021,21.2910535 181.574694,21.6192817 C181.867755,21.9533712 182.219428,22.0881792 182.688326,22.0881792 L206.90102,22.0881792 C209.562013,22.0881792 211.765832,23.0259742 213.623838,24.8839805 C215.499428,26.7478481 216.419639,29.0102785 216.419639,31.6067984 L216.419639,37.761078 C216.419639,40.3986264 215.481844,42.6258895 213.617977,44.4428673 C211.742387,46.3184573 209.485818,47.1976401 206.889298,47.1976401 L182.694187,47.1976401 C180.039055,47.1976401 177.829375,46.2598451 175.97723,44.3842551 C174.113363,42.5086652 173.181429,40.2227899 173.181429,37.6438536 L173.181429,36.1199368 L181.111658,36.1199368 L181.111658,37.7024658 C181.111658,38.1713633 181.240605,38.4644243 181.580555,38.8160974 C181.908784,39.1091583 182.242873,39.2849949 182.705909,39.2849949 L206.936187,39.2849949 C207.405085,39.2849949 207.733313,39.1677705 208.067403,38.8160974 C208.360464,38.4644243 208.477688,38.1127511 208.477688,37.7024658 L208.477688,31.6126596 C208.477688,31.1437621 208.360464,30.8096726 208.00879,30.4755832 C207.657117,30.1414937 207.305444,30.0066857 206.895159,30.0066857 L182.688326,30.0066857 C179.992165,30.0066857 177.823514,29.0806131 175.947924,27.2167456 C174.072334,25.352878 173.134539,23.0845864 173.134539,20.4880665 L173.134539,14.2986196 C173.134539,11.6317651 174.072334,9.43380804 175.889312,7.56994049 C177.764902,5.70607295 179.992165,4.77413917 182.571101,4.77413917 L206.90102,4.77413917 C209.562013,4.77413917 211.765832,5.71193417 213.623838,7.58752415 C215.499428,9.40450195 216.419639,11.6903772 216.419639,14.3279257 L216.454807,14.2986196 Z M233.229614,4.70966577 L257.454031,4.70966577 C260.115025,4.70966577 262.318843,5.64746076 264.176849,7.50546709 C266.040717,9.36933463 266.972651,11.6317651 266.972651,14.2282849 L266.972651,37.7317719 C266.972651,40.3986264 266.034856,42.5965834 264.159266,44.460451 C262.283676,46.3243185 259.9978,47.2562523 257.418864,47.2562523 L233.212031,47.2562523 C230.51587,47.2562523 228.347219,46.3184573 226.471629,44.4428673 C224.596039,42.5672773 223.658244,40.2814021 223.658244,37.7024658 L223.658244,14.2048401 C223.658244,11.549708 224.596039,9.34002854 226.413017,7.48788343 C228.288607,5.62401588 230.51587,4.69208211 233.094806,4.69208211 L233.229614,4.70966577 Z M257.454031,12.6340334 L233.229614,12.6340334 C232.760717,12.6340334 232.426628,12.7688415 232.092538,13.1029309 C231.76431,13.4311592 231.623641,13.7652487 231.623641,14.2282849 L231.623641,37.7317719 C231.623641,38.2006694 231.76431,38.5347589 232.092538,38.8688483 C232.426628,39.1970766 232.760717,39.3377458 233.229614,39.3377458 L257.454031,39.3377458 C257.922929,39.3377458 258.251157,39.1970766 258.585247,38.8688483 C258.919336,38.5347589 259.054144,38.2006694 259.054144,37.7317719 L259.054144,14.2282849 C259.054144,13.7593874 258.919336,13.4311592 258.585247,13.0970697 C258.251157,12.862621 257.922929,12.6867844 257.454031,12.6867844 L257.454031,12.6340334 Z M329.007789,4.70966577 C331.668783,4.70966577 333.872601,5.64746076 335.730607,7.50546709 C337.594475,9.36933463 338.526408,11.6317651 338.526408,14.2282849 L338.526408,47.2562523 L330.672375,47.2562523 L330.672375,14.2048401 C330.672375,13.7359426 330.537567,13.4077143 330.203478,13.0736249 C329.869388,12.7453966 329.470826,12.6047274 329.007789,12.6047274 L312.22712,12.6047274 C311.769945,12.6047274 311.435856,12.7453966 311.101766,13.0736249 C310.767677,13.4077143 310.632869,13.7418038 310.632869,14.2048401 L310.632869,47.2328074 L302.720223,47.2328074 L302.720223,14.2165625 C302.720223,13.747665 302.585415,13.4194368 302.251326,13.0853473 C301.917236,12.7336742 301.583147,12.6164498 301.120111,12.6164498 L284.280829,12.6164498 C283.811932,12.6164498 283.477842,12.7336742 283.149614,13.0853473 C282.797941,13.3784082 282.680717,13.7300813 282.680717,14.1989788 L282.680717,47.1976401 L274.709459,47.1976401 L274.709459,4.70966577 L328.925732,4.70966577 L329.007789,4.70966577 Z M379.924196,4.70966577 C382.585189,4.70966577 384.789008,5.64746076 386.647014,7.50546709 C388.510881,9.36933463 389.442815,11.6317651 389.442815,14.2282849 L389.442815,29.936351 L354.099666,29.936351 L354.099666,37.7317719 C354.099666,38.2006694 354.234475,38.5347589 354.568564,38.8688483 C354.896792,39.1970766 355.230882,39.3377458 355.699779,39.3377458 L389.442815,39.3377458 L389.442815,47.2503911 L355.699779,47.2503911 C353.032925,47.2503911 350.834968,46.3243185 348.976961,44.460451 C347.113094,42.5965834 346.18116,40.334153 346.18116,37.7317719 L346.18116,14.2282849 C346.18116,11.5672916 347.118955,9.36347341 348.976961,7.50546709 C350.840829,5.64159954 353.103259,4.70966577 355.699779,4.70966577 L379.924196,4.70966577 L379.924196,4.70966577 Z M354.099666,22.0237058 L381.53017,22.0237058 L381.53017,14.2282849 C381.53017,13.7593874 381.389501,13.4311592 381.061273,13.0970697 C380.721322,12.8040088 380.393094,12.6867844 379.924196,12.6867844 L355.699779,12.6867844 C355.230882,12.6867844 354.896792,12.862621 354.568564,13.1556819 C354.234475,13.507355 354.099666,13.8590282 354.099666,14.2693135 L354.099666,22.0647343 L354.099666,22.0237058 Z"/>
    <g transform="translate(217.595)">
      <path fill="#177ED0" d="M51.6129032,12.1524927 L38.3812317,0.0117302053 L36.516129,2.04105572 L47.542522,12.1524927 L4.08211144,12.1524927 L15.1085044,2.02932551 L13.2316716,-2.66453526e-15 L0,12.1524927 L0,20.1583578 C0,23.7771261 3.48973607,26.7272727 7.771261,26.7272727 L15.9237537,26.7272727 C20.2052786,26.7272727 23.6950147,23.7771261 23.6950147,20.1583578 L23.6950147,14.8973607 L27.9178886,14.8973607 L27.9178886,20.1583578 C27.9178886,23.7771261 31.4017595,26.7272727 35.6832845,26.7272727 L43.8357771,26.7272727 C48.1173021,26.7272727 51.6070381,23.7771261 51.6070381,20.1583578 L51.6070381,12.1524927 L51.6129032,12.1524927 Z" transform="translate(1.173 1.76)"/>
      <path stroke="#FFF" stroke-width="3" d="M46.4516129,13.0322581 L7.50733138,13.0322581 L16.8739003,4.4398827 L17.5190616,3.84164223 L16.9325513,3.19648094 L15.0557185,1.16715543 L14.4692082,0.463343109 L13.8240469,1.04985337 L0.838709677,12.9560117 L0.293255132,12.9560117 L0.293255132,21.8709677 C0.293255132,25.9765396 4.19941349,29.3196481 8.93841642,29.3196481 L17.0909091,29.3196481 C21.8416422,29.3196481 25.7419355,25.9765396 25.7419355,21.8709677 L25.7419355,17.5307918 L28.2052786,17.5307918 L28.2052786,21.8709677 C28.2052786,25.9765396 32.0762463,29.3196481 36.8269795,29.3196481 L44.9794721,29.3196481 C49.7302053,29.3196481 53.601173,25.9765396 53.601173,21.8709677 L53.601173,13.4897361 L53.3079179,13.2316716 L40.058651,1.1143695 L39.4134897,0.527859238 L38.8269795,1.17302053 L36.9618768,3.19061584 L36.3577713,3.83577713 L37.0029326,4.4340176 L46.3870968,13.0205279 L46.4516129,13.0322581 Z"/>
    </g>
  </g>
</svg>
