<svg xmlns="http://www.w3.org/2000/svg" width="754" height="365" xmlns:xlink="http://www.w3.org/1999/xlink"><defs><path id="a" d="M471 20.72L448.44.02l-3.18 3.46 18.8 17.24h-74.1l18.8-17.26-3.2-3.46L383 20.72v13.65c0 6.17 5.95 11.2 13.25 11.2h13.9c7.3 0 13.25-5.03 13.25-11.2V25.4h7.2v8.97c0 6.17 5.94 11.2 13.24 11.2h13.9c7.3 0 13.25-5.03 13.25-11.2V20.72z"/></defs><g fill="none"><path fill="#D95947" d="M387.7 180.68h-.1l-22.38 17.58-1.68 8.86h-23.18l6.77-35.63c1.6-13.5 22.03-9.4 25.08-8.7l3.3-17.2c-36.7-14.2-47.5 25.8-47.5 25.8l-6.7 35.6h-.1l-23 18.1h19.7L296.2 339h19.1l21.62-113.8h23.2l-8.5 44.55c-5.4 32.43 27.02 28.88 37.4 26.8l3.2-17c-24.75 5.6-21.5-9.8-21.5-9.8l8.5-44.55h29.5l3.45-18.08h-29.5l5.02-26.44zm-151.72 26.88l-3.46 19.17c46.76-20.42 38.88 15.15 38.88 15.15l-.96 5.35s-27.4-14.1-46.6 1.6c0 0-11.24 7.5-11.24 22.52s13.74 23.1 13.74 23.1 20.66 10.9 36.84-6.55l-1.78 8.13h18.1l11.37-54.05c8.54-53.32-54.9-34.42-54.9-34.42zm30.06 64.35c-19.9 20.5-32.66 7.1-32.66 7.1-8.64-8.4.9-17 .9-17 13.18-12 33.33 1.2 33.33 1.2l-1.5 8.8zm-46.27-64.7c-14.76.2-28.17 8.4-28.17 8.4l1.72-8.1H175.6l-16.16 88.7h18.1l10.96-58.3c8.1-16.5 28.12-11.3 28.12-11.3l3.15-19.3zm-69.07-38c.93.7 1.8 1.5 2.65 2.2l13.73-10.8.43-.5c-2.1-2.1-4.3-4.1-6.8-6-31.5-23.8-79.1-13.8-106.4 22.3-27.2 36.2-23.7 84.8 7.8 108.6 25.8 19.5 62.2 16.4 89.6-5.1l-13-10.2c-20.2 13.1-45.4 14-63.6.3-24.2-18.3-26.8-55.6-5.9-83.4 20.9-27.8 57.5-35.4 81.7-17.1zm296.46 56.3c3.24-3.4 7.14-6.1 11.7-8.1 4.55-2 9.6-3 15.12-3 4.83 0 9.22.8 13.15 2.2 3.93 1.5 7.62 3.3 11.08 5.5l3.6-5.2c-3.8-2.5-8.1-4.5-12.7-6.1-4.6-1.6-9.6-2.4-15-2.4-6.3 0-12.2 1.2-17.6 3.6-5.3 2.4-10 5.6-13.9 9.7-3.9 4.1-7 8.9-9.1 14.3-2.1 5.5-3.2 11.3-3.2 17.6 0 6.2 1.1 12 3.3 17.4 2.2 5.4 5.3 10.1 9.1 14.1 3.9 4 8.5 7.2 13.9 9.5s11.3 3.4 17.6 3.4c5.4 0 10.4-.8 15-2.3 4.7-1.6 8.9-3.64 12.8-6.13l-3.5-5.2c-3.5 2.2-7.2 4-11.1 5.5-3.9 1.4-8.3 2.2-13.1 2.2-5.5 0-10.53-1-15.1-3.07-4.54-2-8.44-4.77-11.7-8.3-3.23-3.5-5.8-7.67-7.54-12.45-1.8-4.77-2.7-9.85-2.7-15.24 0-5.4.9-10.42 2.7-15.12 1.8-4.7 4.3-8.72 7.54-12.1zm189.7-10.1c-2.42-2.4-5.18-4.2-8.28-5.3-3.1-1.1-6.4-1.6-9.84-1.6-7.18 0-13.88 2-20.1 5.8-6.2 3.9-11.38 8.5-15.52 13.7-1.52-6.6-4.5-11.5-8.9-14.7-4.43-3.2-9.53-4.7-15.33-4.7-3.6 0-7.1.5-10.4 1.6-3.3 1-6.4 2.4-9.2 4-2.9 1.7-5.5 3.6-8 5.7-2.5 2.2-4.7 4.4-6.7 6.6V210h-6.4v86.1h6.6v-62.9c4.7-5.25 9.8-9.68 15.2-13.28 5.4-3.6 11.3-5.4 17.7-5.4 13.5 0 20.3 7.88 20.3 23.64v57.88h6.6v-61.8c4.4-5.96 9.4-10.73 15.1-14.33 5.6-3.6 11.6-5.4 17.8-5.4 13.5 0 20.3 7.9 20.3 23.7V296h6.6v-58.5c0-5.1-.7-9.5-2.1-13.16-1.4-3.66-3.3-6.7-5.7-9.13zM714 262.2c-2.2-2.9-5-5.28-8.4-7.15-3.37-1.86-7-3.5-10.86-4.87-3.87-1.4-7.5-2.9-10.87-4.57-3.4-1.6-6.18-3.7-8.4-6.1-2.2-2.4-3.3-5.7-3.3-9.8 0-4 1.62-7.6 4.87-10.9 3.24-3.2 8.18-4.8 14.8-4.8 4 0 7.7.6 11.08 1.9 3.4 1.3 6.94 3.3 10.67 6l3.1-5.2c-3.9-2.7-7.9-4.8-11.9-6.2-4.1-1.4-8.4-2.1-13-2.1-4.2 0-7.8.6-11 1.9-3.2 1.3-5.9 2.9-8.1 5-2.2 2.1-3.9 4.5-5.1 7.1-1.2 2.6-1.8 5.3-1.8 8.1 0 4.8 1.1 8.7 3.3 11.6 2.2 2.9 5 5.3 8.4 7.3 3.4 2 7 3.6 10.8 5 3.8 1.4 7.5 3 10.9 4.7 3.4 1.7 6.2 3.8 8.4 6.2 2.2 2.4 3.3 5.7 3.3 9.9 0 4.9-1.9 8.98-5.6 12.3-3.7 3.3-8.7 5-14.9 5-5 0-9.6-.9-13.9-2.7-4.3-1.8-8.4-4.1-12.4-6.9l-3.1 5c4.4 3 9 5.5 13.8 7.33s10 2.8 15.5 2.8c4.1 0 7.8-.7 11.1-2 3.2-1.3 6-3 8.4-5.17 2.3-2.14 4.1-4.66 5.3-7.56 1.22-2.9 1.9-5.97 1.9-9.15 0-4.8-1.1-8.7-3.3-11.6z"/><path fill="#4A4A4A" d="M102.58 36c4.54 0 8.28 1.6 11.46 4.77 3.18 3.18 4.77 7.04 4.77 11.47v56.35H61.3c-4.54 0-8.3-1.6-11.47-4.8-3.2-3.2-4.8-7-4.8-11.5V65.5h60.3V52.2c0-.8-.22-1.35-.8-1.92-.55-.54-1.12-.77-1.9-.77H45V36h57.58zm2.72 59.07V79.05H58.5v13.3c0 .8.24 1.36.8 1.93.58.56 1.14.8 1.94.8h44.06zM235.55 36h14.43l-27.26 72.6h-11L187.3 54.63l-23.07 53.96-.23-.2.12.1h-10.9L124.72 36h14.3l19.65 48.17L179.57 36H195l22.16 48.17L235.56 36zm76.32 0c4.54 0 8.3 1.6 11.47 4.77 3.18 3.18 4.77 7.04 4.77 11.47v26.8h-60.3v13.3c0 .8.3 1.37.8 1.94.6.56 1.2.8 2 .8h57.6v13.5h-57.6c-4.5 0-8.3-1.58-11.4-4.76-3.2-3.18-4.7-7.04-4.7-11.48v-40.1c0-4.54 1.6-8.3 4.8-11.47 3.2-3.17 7-4.77 11.5-4.77H312zM267.8 65.54h46.8v-13.3c0-.8-.24-1.36-.8-1.93-.57-.5-1.14-.7-1.93-.7h-41.34c-.8 0-1.36.3-1.93.8-.57.6-.8 1.2-.8 1.9v13.3zm146.5-13.18v2.72h-13.52v-2.72c0-.8-.22-1.37-.8-1.93-.56-.57-1.13-.8-1.92-.8h-41.34c-.8 0-1.36.23-1.93.8-.6.56-.8 1.13-.8 1.93v10.56c0 .8.2 1.37.8 1.93.5.57 1.1.8 1.9.8H398c4.54 0 8.3 1.6 11.47 4.77 3.2 3.18 4.77 7.04 4.77 11.47v10.5c0 4.5-1.6 8.3-4.78 11.4-3.2 3.2-7.05 4.7-11.48 4.7H356.7c-4.53 0-8.3-1.6-11.46-4.8-3.18-3.2-4.77-7.1-4.77-11.5v-2.6H354v2.7c0 .8.22 1.3.8 1.9.56.5 1.13.8 1.92.8h41.34c.8 0 1.36-.2 1.93-.8.5-.6.7-1.2.7-1.9V81.9c0-.8-.2-1.37-.8-1.94-.6-.57-1.2-.8-1.9-.8h-41.3c-4.6 0-8.3-1.58-11.5-4.76-3.2-3.18-4.8-7.05-4.8-11.48V52.36c0-4.55 1.6-8.3 4.7-11.48 3.2-3.18 7-4.77 11.4-4.77H398c4.54 0 8.3 1.6 11.47 4.8 3.2 3.1 4.77 7 4.77 11.5zM442.92 36h41.33c4.54 0 8.3 1.6 11.47 4.77 3.18 3.18 4.77 7.04 4.77 11.47v40.1c0 4.55-1.6 8.3-4.8 11.48-3.2 3.18-7.1 4.77-11.5 4.77h-41.3c-4.6 0-8.3-1.6-11.5-4.8-3.2-3.2-4.8-7.1-4.8-11.5V52.2c0-4.53 1.6-8.3 4.7-11.46 3.2-3.18 7-4.77 11.4-4.77zm41.33 13.52h-41.33c-.8 0-1.37.23-1.94.8-.56.56-.8 1.13-.8 1.92v40.1c0 .8.24 1.37.8 1.94.57.56 1.14.8 1.94.8h41.33c.8 0 1.36-.24 1.93-.8.57-.57.8-1.14.8-1.94v-40.1c0-.8-.23-1.36-.8-1.93-.57-.4-1.13-.7-1.93-.7zM606.33 36c4.54 0 8.3 1.6 11.47 4.77 3.18 3.18 4.77 7.04 4.77 11.47v56.35h-13.4V52.2c0-.8-.23-1.36-.8-1.93-.57-.56-1.25-.8-2.04-.8H577.7c-.78 0-1.35.24-1.92.8-.57.57-.8 1.14-.8 1.93v56.35h-13.5V52.22c0-.8-.23-1.36-.8-1.93-.57-.6-1.14-.8-1.93-.8h-28.73c-.8 0-1.37.2-1.93.8-.6.5-.8 1.1-.8 1.9v56.3h-13.6V36h92.5zm86.87 0c4.54 0 8.3 1.6 11.47 4.77 3.18 3.18 4.77 7.04 4.77 11.47v26.8h-60.3v13.3c0 .8.23 1.37.8 1.94.56.56 1.13.8 1.93.8h57.57v13.5h-57.57c-4.55 0-8.3-1.58-11.47-4.76-3.18-3.18-4.77-7.04-4.77-11.48v-40.1c0-4.54 1.6-8.3 4.77-11.47 3.18-3.18 7.04-4.77 11.47-4.77h41.33zm-44.06 29.54h46.8v-13.3c0-.8-.24-1.36-.8-1.93-.58-.5-1.14-.7-1.94-.7h-41.33c-.8 0-1.37.3-1.93.8-.57.6-.8 1.2-.8 1.9v13.3z"/><g transform="translate(35 31)"><use fill="#177ED0" fill-rule="evenodd" xlink:href="#a"/><path stroke="#FFF" stroke-width="3" d="M460.2 19.22h-66.4l15.97-14.65 1.1-1.02-1-1.1-3.2-3.46-1-1.2-1.1 1-22.14 20.3h-.93v15.2c0 7 6.66 12.7 14.74 12.7h13.9c8.1 0 14.75-5.7 14.75-12.7v-7.4h4.2v7.4c0 7 6.6 12.7 14.7 12.7h13.9c8.1 0 14.7-5.7 14.7-12.7V20l-.5-.44L449.3-1.1l-1.1-1-1 1.1-3.18 3.44-1.03 1.1 1.1 1.02 16 14.64z"/></g></g></svg>